<?xml version="1.0" encoding="UTF-8" standalone="no" ?>
<!DOCTYPE svg PUBLIC "-//W3C//DTD SVG 1.1//EN" "http://www.w3.org/Graphics/SVG/1.1/DTD/svg11.dtd">
<svg xmlns="http://www.w3.org/2000/svg" xmlns:xlink="http://www.w3.org/1999/xlink" version="1.1" width="500" height="500" viewBox="0 0 500 500" xml:space="preserve">
<desc>Created with Fabric.js 3.6.3</desc>
<defs>
</defs>
<g transform="matrix(6.829146067219939 0 0 6.829146067219939 245.40501157470808 250)"  >
<path style="stroke: none; stroke-width: 0; stroke-dasharray: none; stroke-linecap: butt; stroke-dashoffset: 0; stroke-linejoin: miter; stroke-miterlimit: 4; fill: rgb(28,154,234); fill-rule: evenodd; opacity: 1;"  transform=" translate(-49.736335678118664, -51.079289321881305)" d="M 33.2 40.4 c 0.1 -0.4 0.5 -0.6 0.6 -1 c 0.1 -0.6 0.2 -1.1 0.5 -1.6 c 0 0 0.1 -0.1 0.1 -0.1 c 0.1 -0.3 0.2 -0.6 0.3 -0.9 c 0 0 0.1 0 0.1 -0.1 c 0 -0.2 0.1 -0.2 0.1 -0.3 c 0 -0.1 0 -0.3 0.1 -0.4 c 0 0 0.2 -0.1 0.2 -0.1 c 0.1 -0.1 0.1 -0.3 0.2 -0.4 c 0.2 -0.1 0.4 -0.2 0.5 -0.3 c 0.7 -0.7 1.4 -1.6 2.1 -2.2 c 0.2 -0.1 0.3 -0.3 0.4 -0.4 c 0.1 -0.1 0.1 -0.2 0.2 -0.2 c 0 0 0.2 0 0.2 0 c 0 0 0 -0.1 0 -0.1 c 0.1 -0.1 0.2 0 0.3 -0.1 c 0 0 0.1 -0.2 0.1 -0.2 c 0.1 -0.1 0.2 -0.1 0.3 -0.1 c 0.1 0 0 -0.1 0.1 -0.1 c 0 0 0.3 -0.1 0.3 -0.1 c 0 0 0.1 -0.2 0.1 -0.2 c 0.2 -0.1 0.3 -0.1 0.5 -0.2 c 0.1 -0.1 0.2 -0.2 0.3 -0.3 c 0.1 -0.1 0.1 -0.2 0.2 -0.2 c 0 0 0.2 0 0.2 0 c 0.1 -0.1 0.1 -0.2 0.2 -0.2 c 0 0 0.2 0 0.2 0 c 0 0 0 -0.1 0 -0.1 c 0.1 0 0.4 -0.1 0.6 -0.1 c 0.4 -0.1 1.1 -0.2 1.6 -0.3 c 1.2 -0.2 2 -0.4 3.4 -0.3 c 0 0 0 0.1 0.1 0.1 c 0.1 0 0.3 0 0.4 0 c 0.2 0 0.2 -0.1 0.4 -0.1 c 0.2 0 0.3 0.1 0.5 0.1 c 0.2 0 0.2 -0.1 0.4 -0.1 c 0.4 0 0.7 0 1.1 0 c 0.6 0 1.3 0.2 1.9 0.2 c 0.8 0.1 1.5 0 2 0.1 c 0 0 0 0.1 0.1 0.1 c 0.1 0 0.2 0 0.3 0 c 0.1 0 0.2 0.1 0.3 0.1 c 0.1 0 0.4 0.2 0.6 0.3 c 0.2 0.1 0.4 0.1 0.6 0.2 c 0.1 0 0.2 0.2 0.2 0.2 c 0 0 0.2 0 0.2 0 c 0.1 0.1 0.1 0.1 0.2 0.1 c 0.1 0 0.2 0.1 0.3 0.1 c 0.1 0 0.2 0.1 0.4 0.2 c 0 0 0.2 0 0.2 0 c 0.2 0.2 0.6 0.3 1 0.4 c 0 0 0 0.1 0.1 0.1 c 0.1 0 0.2 0.2 0.3 0.2 c 0.1 0 0.1 0.1 0.2 0.1 c 0.1 0.1 0.2 0.2 0.3 0.3 c 0.1 0.1 0.2 0 0.3 0.1 c 0.1 0 0.1 0.2 0.1 0.2 c 0.1 0.1 0.3 0.1 0.4 0.2 c 0.1 0.1 0.1 0.1 0.2 0.2 c 0.4 0.3 1.1 1 1.5 1.5 c 0.1 0.1 0.2 0.2 0.3 0.3 c 0.1 0.1 0.1 0.3 0.2 0.4 c 0.1 0.1 0.2 0.2 0.3 0.3 c 0.7 0.9 1.1 1.5 1.5 2.6 c 0.1 0.3 0.2 0.6 0.3 1 c 0.1 0.1 0.2 0.3 0.2 0.4 c 0.1 0.3 0.2 0.7 0.3 1 c 0 0.1 0 0.2 0 0.3 c 0 0.1 0.1 0.1 0.1 0.2 c 0.1 0.6 -0.1 1.3 -0.1 2 c -0.1 0.9 -0.1 1.6 -0.2 2.4 c 0 0 0 0.2 0 0.2 c -0.1 0.1 -0.1 0.3 -0.2 0.6 c -0.1 0.2 -0.2 0.4 -0.2 0.5 c -0.1 0.2 0 0.4 -0.1 0.6 c 0 0 -0.1 0 -0.1 0.1 c -0.1 0.3 -0.1 0.5 -0.2 0.7 c 0 0 0 0.2 0 0.2 c -0.2 0.2 -0.3 0.8 -0.4 1.1 c 0 0.1 -0.2 0.1 -0.2 0.2 c -0.1 0.2 -0.2 0.3 -0.3 0.5 c -0.1 0.2 -0.2 0.3 -0.3 0.5 c -0.1 0.2 -0.2 0.3 -0.3 0.5 c 0 0.1 -0.1 0 -0.1 0.1 c 0 0.3 -0.6 0.6 -0.9 0.9 c -0.1 0.1 -0.1 0.2 -0.1 0.3 c 0 0.1 -0.2 0.1 -0.2 0.2 c -0.2 0.2 -0.3 0.4 -0.5 0.5 c -0.1 0 -0.1 0.1 -0.1 0.1 c -0.1 0.1 -0.3 0.2 -0.4 0.2 c 0 0 -0.2 0.1 -0.2 0.1 c -0.1 0 -0.2 0.1 -0.3 0.1 c -0.1 0.1 -0.1 0.3 -0.2 0.3 c -0.1 0.1 -0.2 0 -0.3 0.1 c -0.1 0 0 0.1 -0.1 0.1 c 0 0 -0.2 0.1 -0.2 0.1 c -0.1 0.1 -0.1 0.2 -0.2 0.2 c -0.1 0.1 -0.3 0 -0.4 0.1 c -0.1 0 -0.1 0.2 -0.2 0.2 c -0.1 0.1 -0.2 0.1 -0.3 0.2 c -0.1 0 -0.2 0.2 -0.2 0.2 c -0.1 0.1 -0.3 0 -0.4 0.1 c -0.1 0 -0.2 0.2 -0.2 0.2 c -0.1 0 -0.2 0 -0.2 0 c -0.1 0 -0.2 0.1 -0.3 0.1 c -0.1 0 -0.1 0.1 -0.1 0.1 c -0.6 0.1 -1.3 0.1 -2 0.2 c -0.9 0.1 -1.6 0.4 -2.5 0.2 c 0 0 0 -0.1 -0.1 -0.1 c 0 0 -0.1 0 -0.1 0 c 0 0 -0.1 -0.1 -0.1 -0.1 c -0.5 -0.1 -1.1 -0.2 -1.6 -0.3 c -0.1 0 -0.4 -0.2 -0.5 -0.2 c -0.1 0 -0.2 0 -0.2 0 c -0.1 0 -0.2 -0.2 -0.2 -0.2 c -0.1 -0.1 -0.2 0 -0.3 -0.1 c -0.1 0 -0.1 -0.2 -0.2 -0.2 c -0.1 -0.1 -0.2 0 -0.3 -0.1 c -0.1 -0.1 -0.3 -0.3 -0.4 -0.4 c -0.1 -0.1 -0.2 -0.1 -0.3 -0.1 c -0.1 0 0 -0.1 -0.1 -0.1 c 0 0 -0.1 0 -0.1 0 c -0.1 -0.1 -0.3 -0.3 -0.4 -0.4 c -0.1 -0.1 -0.1 -0.2 -0.2 -0.2 c -0.1 -0.1 -0.2 0 -0.3 -0.1 c -0.1 -0.1 -0.3 -0.3 -0.4 -0.4 c -0.3 -0.3 -0.4 -0.3 -0.6 -0.7 c 0 -0.1 -0.1 0 -0.1 -0.1 c 0 -0.2 -0.2 -0.2 -0.2 -0.4 c 0 -0.2 -0.2 -0.3 -0.3 -0.4 c -0.3 -0.4 -0.7 -1.3 -0.9 -1.8 c -0.2 -0.8 -0.3 -1.7 -0.2 -2.5 c 0.1 -0.5 0.4 -1 0.7 -1.6 c 0.1 -0.2 0.2 -0.4 0.3 -0.6 c 0.1 -0.1 0.1 -0.2 0.2 -0.3 c 0.1 -0.1 0.1 -0.2 0.2 -0.3 c 0 0 0.1 -0.3 0.1 -0.3 c 0.2 -0.2 0.4 -0.5 0.6 -0.9 c 0 0 0.2 -0.1 0.2 -0.1 c 0 0 0 -0.2 0 -0.2 c 0.2 -0.2 0.4 -0.3 0.6 -0.5 c 0.1 -0.1 0.2 -0.3 0.4 -0.4 c 0 0 0.3 -0.1 0.3 -0.1 c 0 0 0 -0.1 0 -0.1 c 0 0 0.2 0 0.2 0 c 0 0 0.3 -0.3 0.5 -0.3 c 0.1 0 0.4 -0.1 0.6 -0.2 c 0.7 -0.2 1.3 -0.3 1.9 -0.2 c 0.3 0 0.6 0.1 0.9 0.2 c 0.1 0 0 0.1 0.1 0.1 c 0.2 0 0.3 0.3 0.4 0.4 c 0.1 0.1 0.3 0.1 0.3 0.2 c 0.1 0.1 0.1 0.3 0.1 0.4 c 0 0 0.1 0 0.1 0.1 c 0 0 -0.1 0.7 0 0.7 c 0.3 0.3 -0.2 1 -0.4 1.3 c -0.3 0.3 -0.7 0.5 -1 0.9 c -0.3 0.3 -0.5 0.7 -0.7 1.1 c 0 0.1 -0.1 0 -0.1 0.1 c 0 0 -0.1 0.2 -0.1 0.2 c -0.1 0.1 -0.2 0.2 -0.2 0.4 c -0.1 0.6 -0.2 1.3 0.2 1.9 c 0 0 0.1 0.3 0.1 0.3 c 0 0 0.1 0 0.1 0 c 0 0 0 0.2 0 0.2 c 0 0 0.1 0 0.1 0 c 0 0 0 0.2 0 0.2 c 0.2 0.2 0.3 0.4 0.6 0.6 c 0.1 0 0.1 0.1 0.2 0.1 c 0.2 0.1 0.5 0.5 0.9 0.5 c 0.4 0.1 0.8 0 1.2 -0.1 c 0.1 0 0.1 0 0.2 0 c 0.8 -0.2 1.7 -0.4 2.4 -1 c 0.1 -0.1 0.2 -0.3 0.3 -0.4 c 0.1 -0.1 0.2 -0.2 0.3 -0.3 c 0.2 -0.3 0.4 -0.6 0.5 -0.9 c 0.1 -0.1 0.3 -0.2 0.3 -0.3 c 0 0 0 -0.2 0 -0.2 c 0 0 0.1 0 0.1 0 c 0 0 0 -0.2 0 -0.2 c 0.3 -0.2 0.4 -1.1 0.6 -1.8 c 0.2 -0.6 0.4 -1.2 0.5 -1.7 c 0.1 -0.5 0.1 -1 0.1 -1.5 c 0 -0.5 0.1 -1 0 -1.4 c -0.1 -0.4 -0.5 -1.1 -0.9 -1.6 c -0.1 -0.1 -0.2 -0.1 -0.2 -0.2 c 0 0 0 -0.2 0 -0.2 c 0 0 -0.2 -0.1 -0.2 -0.1 C 58 39.2 58 39.1 58 39 c 0 0 -0.2 -0.1 -0.2 -0.1 c -0.1 -0.1 -0.1 -0.3 -0.2 -0.4 c -0.3 -0.3 -0.7 -0.6 -1 -1 c -0.1 -0.2 -0.3 -0.3 -0.4 -0.4 c -0.3 -0.2 -1 -0.5 -1.5 -0.7 c -0.3 -0.1 -0.6 -0.2 -0.9 -0.3 c 0 0 0 -0.1 -0.1 -0.1 c -0.2 0 -0.3 0 -0.5 -0.1 c -0.7 -0.3 -2.4 -0.4 -3.6 -0.4 c -1.6 0 -3.4 -0.2 -4.4 0.4 c -0.1 0 0 0.1 -0.1 0.1 c -0.2 0 -0.4 0.2 -0.5 0.3 c -0.5 0.4 -1.2 1 -1.7 1.6 c -0.2 0.3 -0.7 0.4 -1 0.7 c -0.1 0.1 0 0.3 -0.1 0.4 c 0 0.1 -0.2 0.2 -0.2 0.2 c -0.1 0.1 0 0.2 -0.1 0.3 c 0 0.1 -0.2 0.2 -0.2 0.2 c -0.1 0.1 0 0.2 -0.1 0.3 c 0 0.1 -0.2 0.2 -0.2 0.2 c -0.1 0.1 0 0.2 -0.1 0.3 c 0 0.1 -0.2 0.2 -0.2 0.2 c 0 0.1 0 0.5 -0.1 0.5 c 0 0 -0.1 0 -0.1 0 c -0.1 0.3 -0.2 0.7 -0.3 1.1 c 0 0 0 0.2 0 0.2 c 0 0 -0.1 0 -0.1 0 c 0 0 0 0.2 0 0.2 c -0.1 0.1 -0.1 0.1 -0.1 0.2 c 0 0 -0.1 0.3 -0.1 0.3 c 0 0 -0.1 0 -0.1 0 c -0.1 0.2 -0.1 0.4 -0.1 0.5 c 0 0.1 -0.2 0.2 -0.2 0.2 c 0 0.1 0 0.2 0 0.3 c 0 0 -0.1 0 -0.1 0.1 c 0 0 0 0.3 0 0.3 c -0.1 0 -0.1 0.2 -0.2 0.5 c -0.1 0.5 -0.1 1.4 -0.2 2.1 c 0 0.2 -0.2 0.4 -0.2 0.6 c -0.1 0.5 -0.1 0.9 0 1.6 c 0 0.3 0.1 0.5 0.1 0.7 c 0 0 0.1 0 0.1 0.1 c 0 0.4 0.2 0.9 0.3 1.3 c 0.2 0.6 0.5 1.2 0.9 1.7 c 0.1 0.1 0.2 0.1 0.2 0.2 c 0 0 0 0.2 0 0.2 c 0 0 0.1 0 0.1 0 c 0.1 0.2 0.1 0.5 0.2 0.6 c 0 0.1 0.2 0.2 0.2 0.2 c 0.1 0.1 0.1 0.2 0.1 0.3 c 0.2 0.4 0.3 0.8 0.5 1.1 c 0.3 0.5 0.7 1 1.2 1.5 c 0.1 0.1 0.3 0.2 0.4 0.3 c 0.1 0.1 0.1 0.3 0.2 0.4 c 0 0 0 0.2 0 0.2 c 0 0 0.1 0 0.1 0 c 0 0 0 0.2 0 0.2 c 0.1 0 0.2 0.3 0.3 0.4 c 0 0 0.2 0 0.2 0 c 0 0 0.1 0.2 0.1 0.2 c 0 0 0.2 0 0.2 0 c 0 0 0.1 0.2 0.1 0.2 c 0 0 0.2 0 0.2 0 c 0 0 0.1 0.2 0.1 0.2 c 0.1 0.1 0.2 0 0.3 0.1 c 0 0 0.1 0.2 0.1 0.2 c 0.1 0 0.2 0 0.2 0 c 0.1 0 0.2 0.2 0.2 0.2 c 0.1 0 0.1 0.1 0.2 0.1 c 0.1 0.1 0.2 0.1 0.3 0.1 c 0.1 0 0.1 0.1 0.1 0.1 c 0.8 0.4 2 0.5 2.9 0.9 c 0.3 0.1 0.6 0.3 0.9 0.3 c 0.4 0.1 0.9 0 1.4 0.1 c 0.1 0 0.2 0.1 0.3 0.1 c 1.5 0.2 3.9 0.1 5.7 -0.1 c 0.6 -0.1 1.1 -0.1 1.7 -0.2 c 0.1 0 0.2 0 0.3 0 c 0.2 -0.1 0.8 -0.2 1.3 -0.2 c 0.4 0 0.8 0 1.1 -0.1 c 0.6 -0.2 1.1 -0.5 1.6 -0.9 c 0.5 -0.3 1 -0.7 1.8 -0.6 c 0.5 -0.3 0.2 -0.1 0.4 -0.2 c 0.1 -0.1 0.2 -0.2 0.3 -0.3 c 0 0 0.2 0 0.2 0 c 0.2 -0.2 0.6 -0.6 0.9 -0.9 c 0 0 0 -0.2 0 -0.2 c 0.2 -0.1 0.3 -0.3 0.5 -0.5 c 0.2 -0.2 0.4 -0.5 0.5 -0.7 c 0.1 -0.1 0.2 -0.2 0.3 -0.3 c 0.1 -0.1 0.1 -0.3 0.2 -0.4 c 0.1 -0.1 0.2 -0.2 0.3 -0.3 c 0.1 -0.1 0.1 -0.3 0.2 -0.4 c 0.1 -0.1 0.3 -0.2 0.3 -0.3 c 0 0 0 -0.2 0 -0.2 c 0 0 0.1 0 0.1 0 c 0 0 0 -0.2 0 -0.2 c 0 0 0.1 0 0.1 0 c 0.1 -0.2 0.3 -0.5 0.4 -0.7 c 0 -0.1 0.1 0 0.1 -0.1 c 0 -0.2 0.2 -0.3 0.3 -0.4 c 0 0 0 -0.2 0 -0.2 c 0 0 0.1 0 0.1 0 c 0 0 0 -0.2 0 -0.2 c 0.2 -0.2 0.3 -0.3 0.4 -0.6 c 0.3 -0.6 0.6 -1.1 0.9 -1.7 c 0.1 -0.3 0.2 -0.7 0.3 -1 c 0 0 0.1 0 0.1 -0.1 c 0 -0.1 0.1 -0.4 0.2 -0.5 c 0 0 0 -0.2 0 -0.2 c 0.3 -0.3 0.3 -1.4 0.5 -2 c 0 0 0.1 0 0.1 -0.1 c 0 -0.2 0.1 -0.4 0.2 -0.6 c 0 0 0.1 -0.3 0.1 -0.3 c 0.1 -0.1 0.1 -0.1 0.1 -0.2 c 0.1 -0.2 0.3 -0.6 0.4 -1 c 0.1 -0.5 0.1 -1 0.2 -1.5 c 0.1 -0.5 0.1 -1.3 0 -1.9 c -0.1 -0.3 0.1 -0.4 0.1 -0.9 c 0 -0.1 -0.1 -0.2 -0.1 -0.5 c 0 -0.5 0 -1.2 -0.1 -1.7 c -0.1 -0.3 -0.3 -0.8 -0.4 -1.2 c -0.1 -0.2 -0.1 -0.4 -0.2 -0.5 c -0.1 -0.2 -0.1 -0.4 -0.2 -0.5 c 0 -0.1 -0.2 -0.2 -0.2 -0.2 c -0.1 -0.1 -0.1 -0.2 -0.1 -0.3 c -0.2 -0.4 -0.4 -1.1 -0.6 -1.6 c 0 -0.1 -0.1 -0.3 -0.1 -0.3 c 0 0 -0.2 -0.1 -0.2 -0.1 c 0 0 0 -0.2 0 -0.2 c 0 0 -0.1 0 -0.1 0 c 0 0 0 -0.2 0 -0.2 c 0 0 -0.1 0 -0.1 0 c 0 -0.1 0 -0.2 -0.1 -0.3 c 0 0 -0.2 -0.1 -0.2 -0.1 c 0 0 0 -0.2 0 -0.2 c 0 0 -0.1 0 -0.1 0 c 0 0 0 -0.2 0 -0.2 c -0.2 -0.1 -0.5 -0.6 -0.6 -0.9 c -0.1 -0.1 0 -0.2 -0.1 -0.3 c 0 -0.1 -0.2 -0.1 -0.2 -0.1 c -0.2 -0.3 -0.3 -0.5 -0.5 -0.7 c -0.1 -0.1 -0.2 -0.2 -0.3 -0.3 c -0.2 -0.2 -0.5 -0.5 -0.6 -0.6 c -0.3 -0.2 -0.7 -0.4 -1.1 -0.6 c -0.1 0 -0.1 -0.2 -0.2 -0.2 c -0.3 -0.2 -0.9 -0.5 -1.3 -0.7 c -0.1 -0.1 -0.1 -0.2 -0.2 -0.2 c 0 0 -0.2 0 -0.2 0 c -0.1 -0.1 -0.1 -0.3 -0.2 -0.3 c -0.1 -0.1 -0.2 0 -0.3 -0.1 c -0.1 0 -0.2 -0.2 -0.2 -0.2 c 0 0 -0.2 0 -0.2 0 c -0.1 -0.2 -0.7 -0.3 -1.1 -0.4 c -0.2 -0.1 -0.5 0 -0.6 -0.1 c 0 0 0 -0.1 -0.1 -0.1 c -0.3 0 -0.5 -0.2 -0.9 -0.3 c -0.4 -0.1 -0.8 -0.3 -1.2 -0.4 c 0 0 -0.2 0 -0.2 0 c 0 0 0 -0.1 0 -0.1 c -0.6 -0.2 -1.4 -0.4 -2.1 -0.5 c -0.4 -0.1 -0.8 -0.1 -1.2 -0.2 c 0 0 0 -0.1 -0.1 -0.1 c -0.2 0 -0.5 -0.1 -0.9 -0.2 c -0.4 -0.1 -0.8 -0.1 -1.2 -0.2 c -0.7 -0.1 -1.5 -0.2 -2.5 -0.3 c 0 0 0 -0.1 -0.1 -0.1 c -0.1 0 -0.3 0 -0.4 0 c -0.8 -0.1 -1.9 -0.3 -2.9 -0.4 c -1.5 -0.2 -2.8 -0.2 -4 0.2 c 0 0 -0.2 0 -0.2 0 c -0.1 0.1 -0.2 0.2 -0.3 0.2 c 0 0 -0.2 0 -0.2 0 c 0 0 0 0.1 0 0.1 c -0.3 0.1 -0.5 0.1 -0.9 0.2 c 0 0 0 0.1 -0.1 0.1 c -0.2 0 -0.4 0.1 -0.6 0.2 c -0.3 0.1 -0.7 0.2 -1.1 0.3 c -1.1 0.4 -2.2 0.7 -3.2 1.2 c -0.2 0.1 -0.4 0.3 -0.6 0.3 c -0.2 0 -0.2 0.2 -0.4 0.2 c 0 0 -0.2 0.1 -0.2 0.1 c -0.1 0.1 -0.1 0.2 -0.2 0.2 c 0 0 -0.2 0 -0.2 0 c -0.1 0.1 -0.2 0.2 -0.4 0.3 c -0.1 0 0 0.1 -0.1 0.1 c 0 0 -0.2 0.1 -0.2 0.1 c -0.1 0 -0.1 0.2 -0.2 0.2 c -0.2 0.1 -0.4 0.2 -0.5 0.3 c -0.2 0.1 -0.3 0.3 -0.5 0.4 c -0.1 0.1 -0.3 0.3 -0.4 0.4 c -0.3 0.3 -0.8 0.5 -1.1 0.7 c -0.1 0.1 -0.2 0.3 -0.3 0.4 c -0.2 0.2 -0.5 0.4 -0.7 0.7 c -0.3 0.3 -0.6 0.7 -1 1.1 c -0.1 0.1 -0.2 0.3 -0.3 0.4 c -0.1 0.1 -0.2 0.2 -0.3 0.3 c -0.1 0.1 0 0.2 -0.1 0.3 c 0 0.1 -0.2 0.1 -0.2 0.1 c -0.1 0.1 0 0.2 -0.1 0.3 c 0 0 -0.2 0.1 -0.2 0.1 c -0.1 0.1 0 0.2 -0.1 0.3 c -0.1 0.1 -0.4 0.2 -0.5 0.4 c -0.1 0.1 0 0.2 -0.1 0.3 c 0 0 -0.2 0.1 -0.2 0.1 c -0.1 0.1 -0.1 0.3 -0.2 0.4 c -0.1 0.1 -0.3 0.1 -0.3 0.3 c 0 0.1 -0.2 0.1 -0.2 0.2 c 0 0 0 0.2 0 0.2 c 0 0 -0.1 0 -0.1 0 c -0.1 0.1 0 0.3 -0.1 0.4 c 0 0.1 -0.2 0.2 -0.2 0.2 c -0.1 0.2 -0.1 0.5 -0.2 0.6 c 0 0 -0.1 0 -0.1 0.1 c 0 0.1 -0.1 0.4 -0.2 0.5 c -0.1 0.2 -0.1 0.4 -0.2 0.6 c -0.2 0.4 -0.3 0.8 -0.5 1.3 c -0.1 0.2 -0.1 0.5 -0.2 0.6 c 0 0.1 -0.2 0.2 -0.2 0.2 c -0.2 0.4 -0.2 1.2 -0.3 1.8 c 0 0 -0.1 0 -0.1 0.1 c 0 0.3 -0.1 0.4 -0.1 0.9 c 0 0.2 0 0.4 0 0.5 c 0 0 -0.1 0 -0.1 0.1 c 0 0.9 -0.1 2 -0.2 2.9 c 0 0.3 -0.1 0.7 -0.1 1.1 c 0 0.3 0.1 0.7 0.1 1 c 0 0.3 -0.1 0.5 -0.2 0.9 c -0.2 1.1 -0.1 2.4 0 3.9 c 0 0.2 0 0.5 0 0.7 c 0 0.2 0.1 0.2 0.1 0.3 c 0 0 -0.1 0 -0.1 0.1 c 0 0 0 0.1 0 0.1 c 0 0.2 -0.2 0.4 -0.2 0.5 c -0.1 0.8 0.2 1.1 0.4 1.8 c 0.1 0.4 0.2 0.9 0.3 1.3 c 0 0 0.1 0 0.1 0.1 c 0.1 0.2 0.2 0.4 0.2 0.6 c 0.1 0.2 0.2 0.3 0.2 0.5 c 0.1 0.4 0.2 1.1 0.3 1.5 c 0 0 0.1 0 0.1 0.1 c 0 0.1 0 0.2 0.1 0.3 c 0.3 0.5 0.6 1.3 0.9 1.9 c 0 0 0.1 0 0.1 0.1 c 0.1 0.3 0.2 0.6 0.3 1 c 0.1 0.2 0.3 0.5 0.3 0.6 c 0 0.1 0.2 0.2 0.2 0.3 c 0 0.1 0.2 0.2 0.2 0.3 c 0 0.1 0.2 0.3 0.3 0.4 c 0 0 0.2 0.1 0.2 0.1 c 0.1 0.1 0.1 0.3 0.2 0.4 c 0.1 0.1 0.3 0.1 0.3 0.2 c 0.1 0.1 0 0.2 0.1 0.3 c 0.2 0.2 0.5 0.4 0.7 0.7 c 0.1 0.1 0.3 0.3 0.4 0.5 c 0.1 0.2 0.4 0.5 0.6 0.7 c 0.2 0.2 0.6 0.5 0.9 0.7 c 0.1 0.1 0.1 0.2 0.2 0.2 c 0 0 0.2 0 0.2 0 c 0 0 0.1 0.2 0.1 0.2 c 0.1 0.1 0.2 0 0.3 0.1 c 0 0 0.1 0.2 0.1 0.2 c 0.1 0.1 0.3 0.1 0.4 0.2 c 0.2 0.1 0.3 0.4 0.4 0.5 c 0 0 0.2 0 0.2 0 c 0.3 0.4 0.9 1 1.4 1.3 c 0.3 0.2 0.6 0.2 1 0.3 c 0.3 0.1 0.6 0.3 0.9 0.4 c 0.1 0 0 0.1 0.1 0.1 c 0.1 0 0.1 0.2 0.2 0.2 c 0.1 0.1 0.3 0 0.5 0.1 c 0.3 0.1 0.6 0.2 1 0.3 c 0.6 0.2 1.2 0.6 1.7 0.9 c 1.1 0.6 2.3 0.9 3.6 1.4 c 0.9 0.3 1.8 0.8 2.8 1 c 0.4 0.1 0.8 0 1.2 0.1 c 0.3 0.1 0.7 0.2 1.1 0.2 c 0.2 0 0.4 -0.1 0.6 0 c 0 0 0 0.1 0.1 0.1 c 0.1 0 0.2 0.2 0.3 0.2 c 0 0 0.2 0.1 0.2 0.1 c 0.1 0 0.2 0.1 0.3 0.1 c 0.1 0 0.2 0.2 0.2 0.2 c 0.1 0.1 0.2 0 0.3 0.1 c 0.4 0.3 0.6 0.8 0.6 1.2 c 0 0.3 0.1 0.6 0 1 c 0 0 -0.1 0 -0.1 0.1 c 0 0 -0.1 0.3 -0.1 0.3 c 0 0 -0.2 0.1 -0.2 0.1 c 0 0.1 0 0.2 0 0.2 c 0 0.1 -0.2 0.2 -0.3 0.3 c -0.2 0.2 -0.4 0.5 -0.7 0.7 c 0 0 -0.1 0.1 -0.1 0.1 c -0.3 0.1 -0.7 0 -1.1 0.1 C 50 82.8 49.6 83 49.4 83 c -0.8 0 -1.8 -0.3 -2.8 -0.4 c -0.4 -0.1 -0.7 -0.2 -1.1 -0.2 c -0.3 0 -0.6 -0.1 -0.9 -0.2 C 44.4 82 44.2 82 44 81.9 c -0.1 -0.1 -0.2 -0.1 -0.3 -0.1 c -0.1 0 -0.1 -0.1 -0.1 -0.1 c -0.2 -0.1 -0.4 0 -0.6 -0.1 c 0 0 0 -0.1 -0.1 -0.1 c -0.2 -0.1 -0.3 -0.2 -0.5 -0.2 c -0.2 -0.1 -0.3 -0.2 -0.5 -0.2 c -0.2 -0.1 -0.3 0 -0.5 -0.1 c -0.1 0 -0.2 -0.2 -0.2 -0.2 c -0.1 0 -0.2 0 -0.3 0 c -0.1 0 -0.2 -0.2 -0.2 -0.2 c -0.3 -0.1 -0.3 0 -0.6 -0.1 c 0 0 0 -0.1 -0.1 -0.1 c 0 0 -0.1 0 -0.1 0 c -0.1 0 -0.2 -0.2 -0.2 -0.2 C 39.2 80 39.1 80 39 80 c -0.3 -0.1 -0.7 -0.3 -1.2 -0.4 c 0 0 0 -0.1 -0.1 -0.1 c -0.2 0 -0.3 0 -0.4 -0.1 c -0.1 0 -0.2 -0.2 -0.2 -0.2 c -0.2 -0.1 -0.6 -0.2 -0.9 -0.3 c -0.1 -0.1 -0.1 -0.2 -0.2 -0.2 c 0 0 -0.2 0 -0.2 0 c -0.1 -0.1 -0.3 -0.2 -0.5 -0.3 c -0.2 -0.1 -0.4 -0.1 -0.6 -0.2 c -0.1 0 -0.2 -0.2 -0.2 -0.2 c 0 0 -0.2 0 -0.2 0 c 0 0 0 -0.1 0 -0.1 c -0.2 -0.1 -0.4 -0.1 -0.5 -0.2 c -0.1 0 -0.2 -0.2 -0.2 -0.2 c -0.1 0 -0.2 0 -0.3 0 c -0.1 0 -0.2 -0.2 -0.2 -0.2 c -0.2 -0.1 -0.4 -0.1 -0.6 -0.2 c 0 0 0 -0.1 -0.1 -0.1 c -0.2 0 -0.3 -0.2 -0.5 -0.3 c -0.1 -0.1 -0.3 -0.2 -0.4 -0.2 c -0.1 0 -0.2 -0.2 -0.3 -0.3 c 0 0 -0.2 0 -0.2 0 c 0 0 -0.1 -0.2 -0.1 -0.2 c 0 0 -0.2 0 -0.2 0 c -0.1 -0.1 -0.2 -0.3 -0.4 -0.4 c -0.2 -0.1 -0.4 -0.4 -0.5 -0.5 c 0 0 -0.2 0 -0.2 0 c -0.1 -0.2 -0.4 -0.5 -0.6 -0.7 c 0 0 -0.2 0 -0.2 0 c 0 0 -0.1 -0.2 -0.1 -0.2 c 0 0 -0.2 0 -0.2 0 c -0.1 -0.1 -0.2 -0.3 -0.4 -0.4 c -0.3 -0.2 -0.5 -0.5 -0.9 -0.7 c -0.2 -0.2 -0.6 -0.4 -0.9 -0.7 c -0.2 -0.2 -0.5 -0.5 -0.6 -0.7 c 0 -0.1 -0.2 -0.3 -0.3 -0.4 c -0.2 -0.2 -0.4 -0.4 -0.5 -0.5 c -0.2 -0.2 -0.3 -0.4 -0.4 -0.6 c -0.2 -0.2 -0.4 -0.3 -0.5 -0.5 c -0.2 -0.2 -0.3 -0.4 -0.4 -0.6 c -0.1 -0.2 -0.3 -0.4 -0.4 -0.5 c -0.2 -0.4 -0.4 -1 -0.7 -1.5 c -0.1 -0.1 -0.1 -0.2 -0.1 -0.3 c 0 -0.1 -0.1 -0.1 -0.1 -0.1 c -0.1 -0.2 0 -0.3 -0.1 -0.4 c 0 -0.1 -0.2 -0.2 -0.2 -0.2 c -0.1 -0.2 -0.1 -0.3 -0.1 -0.4 c -0.1 -0.2 -0.1 -0.3 -0.2 -0.5 c 0 -0.1 -0.1 -0.2 -0.2 -0.4 c -0.1 -0.3 -0.1 -0.5 -0.2 -0.7 c 0 -0.1 -0.2 -0.2 -0.2 -0.2 c 0 -0.1 0 -0.2 0 -0.2 c -0.1 -0.4 -0.4 -1.1 -0.5 -1.6 c -0.1 -0.3 0 -0.6 -0.1 -0.9 c 0 0 -0.1 0 -0.1 -0.1 c 0 0 0 -0.1 0 -0.1 c 0 -0.1 -0.1 -0.2 -0.1 -0.3 c -0.1 -0.4 -0.4 -1.1 -0.5 -1.6 c -0.1 -0.4 -0.2 -0.8 -0.3 -1.3 c -0.1 -0.3 -0.1 -1.2 -0.1 -1.9 c 0 -0.5 -0.1 -1.1 -0.1 -1.6 c 0 -1.3 0.2 -2.5 0.1 -3.9 c 0 0 -0.3 -0.4 -0.1 -0.5 c 0.3 -0.2 0 -1 0 -1.4 c 0 -0.2 0.2 -0.5 0.2 -0.7 c 0 -0.1 0 -0.3 0 -0.4 c 0.1 -0.4 0.2 -1.3 0.3 -1.9 c 0.1 -0.9 0.1 -1.6 0.2 -2.5 c 0 -0.2 0.1 -0.6 0.1 -0.7 c 0 0 0.1 0 0.1 -0.1 c 0 0 0 -0.3 0 -0.3 c 0.1 -0.1 0.1 -0.3 0.2 -0.5 c 0.1 -0.3 0.2 -0.6 0.3 -0.9 c 0.1 -0.3 0.2 -0.7 0.3 -1 c 0 0 0.1 0 0.1 -0.1 c 0 -0.2 0.2 -0.2 0.2 -0.4 c 0 -0.1 0.3 -0.6 0.4 -0.9 c 0 0 0 -0.2 0 -0.2 c 0.1 -0.1 0.2 -0.5 0.3 -0.7 c 0.3 -0.4 0.4 -1.4 0.6 -1.9 c 0 -0.1 0.1 0 0.1 -0.1 c 0 -0.1 0.2 -0.1 0.2 -0.2 c 0 0 0 -0.2 0 -0.2 c 0 0 0.1 0 0.1 0 c 0 0 0 -0.2 0 -0.2 c 0 0 0.1 0 0.1 0 c 0 0 0 -0.2 0 -0.2 c 0 0 0.1 0 0.1 0 c 0 0 0 -0.2 0 -0.2 c 0 0 0.1 0 0.1 0 c 0.1 -0.2 0.2 -0.4 0.3 -0.6 c 0 -0.1 0.1 0 0.1 -0.1 c 0 0 0 -0.1 0 -0.1 c 0.1 -0.1 0.2 -0.2 0.3 -0.3 c 0.1 -0.1 0.1 -0.3 0.2 -0.4 c 0.1 -0.1 0.2 -0.2 0.3 -0.3 c 0.1 -0.1 0.1 -0.3 0.2 -0.4 c 0.1 -0.1 0.2 -0.2 0.3 -0.3 c 0.1 -0.1 0.1 -0.3 0.2 -0.4 c 0.1 -0.1 0.2 -0.2 0.3 -0.3 c 0 0 0 -0.2 0 -0.2 c 0.3 -0.2 0.6 -0.5 0.9 -0.9 c 0.2 -0.2 0.3 -0.4 0.5 -0.6 c 0.1 -0.1 0.2 -0.2 0.3 -0.3 c 0.2 -0.2 0.3 -0.5 0.5 -0.7 c 0.4 -0.5 0.8 -0.9 1.2 -1.3 c 0.1 -0.1 0.2 -0.2 0.3 -0.3 c 0.1 -0.1 0.3 -0.1 0.4 -0.2 c 0.2 -0.1 0.4 -0.5 0.6 -0.6 c 0.2 -0.2 0.5 -0.4 0.7 -0.5 c 0.2 -0.1 0.3 -0.3 0.5 -0.4 c 0.1 -0.1 0.4 -0.2 0.5 -0.3 c 0.1 -0.1 0.2 -0.3 0.3 -0.3 c 0 0 0.2 0 0.2 0 c 0 0 0 -0.1 0 -0.1 c 0 0 0.2 0 0.2 0 c 0 0 0 -0.1 0 -0.1 c 0.2 -0.1 0.4 -0.2 0.6 -0.3 c 0.1 0 0 -0.1 0.1 -0.1 c 0 0 0.1 0 0.1 0 c 0.1 -0.1 0.2 -0.2 0.3 -0.3 c 0 0 0.2 0 0.2 0 c 0.1 -0.1 0.1 -0.1 0.2 -0.2 c 0.1 -0.1 0.2 -0.2 0.3 -0.3 c 0.1 -0.1 0.3 -0.1 0.4 -0.2 c 0.1 0 0 -0.1 0.1 -0.1 c 0.2 0 0.3 -0.2 0.4 -0.3 c 0 0 0.2 0 0.2 0 c 0 0 0 -0.1 0 -0.1 c 0 0 0.2 0 0.2 0 c 0 0 0 -0.1 0 -0.1 c 0 0 0.2 0 0.2 0 c 0 0 0 -0.1 0 -0.1 c 0 0 0.2 0 0.2 0 c 0 0 0 -0.1 0 -0.1 c 0 0 0.2 0 0.2 0 c 0 0 0 -0.1 0 -0.1 c 0 0 0.2 0 0.2 0 c 0 0 0 -0.1 0 -0.1 c 0 0 0.2 0 0.2 0 c 0.2 -0.2 0.9 -0.5 1.3 -0.6 c 0 0 0.2 0 0.2 0 c 0 0 0 -0.1 0 -0.1 c 0 0 0.2 0 0.2 0 c 0.1 -0.1 0.6 -0.3 1 -0.4 c 0.3 -0.1 0.7 -0.2 1 -0.3 c 0.2 -0.1 0.5 -0.1 0.7 -0.2 c 0.3 -0.1 1.1 -0.3 1.7 -0.4 c 0.2 0 0.3 -0.1 0.5 -0.1 c 0 0 0 -0.1 0.1 -0.1 c 0 0 0.3 0 0.3 0 c 0.1 -0.1 0.3 0 0.6 -0.1 c 0 0 0 -0.1 0.1 -0.1 c 0.1 0 0.3 0 0.4 0 c 0 0 0 -0.1 0.1 -0.1 c 0.1 0 0.2 0 0.3 0 c 0.5 -0.1 1.7 -0.2 2.5 -0.1 c 0 0 0 0.1 0.1 0.1 c 0.3 0 0.9 0 1.3 0.1 c 0.1 0 0.2 0 0.3 0 c 0.3 0.1 1.2 0.1 1.6 0.2 c 0.2 0.1 0.2 0 0.3 0.1 c 0.2 0.2 1.6 0 2.1 0 c 0.3 0 0.7 0.2 1.1 0.2 c 0.3 0.1 0.7 0 1.1 0.1 c 0 0 0 0.1 0.1 0.1 c 0.1 0 0.3 0 0.4 0 c 0 0 0 0.1 0.1 0.1 c 0 0 0.3 0 0.3 0 c 0 0 0 0.1 0 0.1 c 0.2 0 0.4 0.1 0.5 0.1 c 0.5 0.1 1.3 0.3 2 0.4 c 0.3 0.1 0.6 0.1 1.1 0.1 c 0.2 0 0.3 0.1 0.4 0.1 c 0.5 0.1 1 0.1 1.4 0.2 c 0 0 0 0.1 0.1 0.1 c 0.3 0 0.8 0.2 1.1 0.3 c 0.2 0.1 0.4 0 0.5 0.1 c 0 0 0 0.1 0.1 0.1 c 0.3 0 0.5 0.2 0.7 0.3 c 0 0 0.2 0 0.2 0 c 0 0 0 0.1 0 0.1 c 0 0 0.2 0 0.2 0 c 0 0 0 0.1 0 0.1 c 0.2 0.1 0.6 0.1 0.7 0.2 c 0 0 0.1 0.2 0.1 0.2 c 0 0 0.2 0 0.2 0 c 0 0 0 0.1 0 0.1 c 0 0 0.2 0 0.2 0 c 0 0 0 0.1 0 0.1 c 0 0 0.2 0 0.2 0 c 0 0 0 0.1 0 0.1 c 0 0 0.2 0 0.2 0 c 0 0 0 0.1 0 0.1 c 0 0 0.2 0 0.2 0 c 0 0 0 0.1 0 0.1 c 0 0 0.2 0 0.2 0 c 0.1 0.2 0.4 0.2 0.7 0.3 c 0 0 0.2 0 0.2 0 c 0.1 0.1 0.3 0.1 0.5 0.2 c 0 0 0 0.1 0.1 0.1 c 0.2 0 0.2 0.2 0.4 0.2 c 0.2 0 0.2 0.2 0.4 0.2 c 0.1 0 0.1 0.2 0.2 0.2 c 0 0 0.2 0 0.2 0 c 0 0 0 0.1 0 0.1 c 0 0 0.2 0 0.2 0 c 0.1 0.1 0.1 0.3 0.3 0.3 c 0 0 0.1 0 0.1 0 c 0.1 0.1 0.2 0.2 0.3 0.3 c 0.2 0.1 0.4 0.2 0.6 0.3 c 0.1 0 0 0.1 0.1 0.1 c 0.1 0 0.1 0.2 0.2 0.2 c 0.2 0.1 0.3 0.1 0.5 0.3 c 0.1 0.1 0.2 0.2 0.3 0.3 c 0.2 0.2 0.4 0.5 0.6 0.6 c 0 0 0.2 0 0.2 0 c 0.1 0.2 0.3 0.3 0.5 0.5 c 0.3 0.3 0.6 0.5 0.9 0.9 c 0.1 0.1 0.3 0.2 0.4 0.4 c 0.1 0.1 0 0.2 0.1 0.3 c 0.1 0.2 0.3 0.3 0.4 0.4 c 0.1 0.1 0.2 0.1 0.2 0.2 c 0.1 0.1 0.2 0.4 0.3 0.6 c 0.1 0.2 0.2 0.3 0.3 0.5 c 0.1 0.1 0.2 0.2 0.2 0.2 c 0.2 0.4 0.4 0.7 0.6 1.1 c 0 0.1 0.1 0 0.1 0.1 c 0 0 0.1 0.2 0.1 0.2 c 0 0.1 0.2 0.1 0.2 0.2 c 0.1 0.1 0 0.2 0.1 0.3 c 0 0.1 0.2 0.2 0.2 0.2 c 0.2 0.4 0.3 0.8 0.5 1.2 c 0 0.1 0 0.2 0.1 0.3 c 0 0.1 0.2 0.2 0.2 0.2 c 0.1 0.1 0 0.2 0.1 0.3 c 0 0.1 0.2 0.2 0.2 0.2 c 0 0.1 0 0.2 0 0.2 c 0 0.1 0.1 0.2 0.2 0.4 c 0 0.1 0.1 0.2 0.1 0.3 c 0 0.1 0.2 0.2 0.2 0.2 c 0.1 0.2 0.1 0.5 0.1 0.6 c 0 0 0.1 0 0.1 0.1 c 0.1 0.4 0.3 0.9 0.4 1.5 c 0.2 0.5 0.3 1 0.4 1.7 c 0.1 0.6 0.2 1.7 0.1 2.7 c 0 0.1 0 0.2 0 0.3 c -0.1 0.6 -0.2 1.9 -0.3 2.7 c 0 0.2 0 0.4 -0.1 0.5 c 0 0.1 -0.1 0 -0.1 0.1 c 0 0.2 -0.3 0.6 -0.4 1 c -0.1 0.3 -0.2 0.6 -0.2 0.9 c -0.1 0.3 0 0.5 -0.1 0.9 c 0 0.1 -0.1 0.1 -0.1 0.2 c 0 0.2 0 0.5 -0.1 0.6 c 0 0 -0.1 0 -0.1 0.1 c 0 0.3 -0.4 0.8 -0.5 1.2 c -0.1 0.2 0 0.3 -0.1 0.4 c 0 0.1 -0.2 0.2 -0.2 0.2 c -0.1 0.3 -0.2 0.7 -0.3 1.1 c 0 0 -0.1 0 -0.1 0.1 c -0.1 0.2 -0.1 0.3 -0.2 0.5 c 0 0.1 -0.1 0.2 -0.1 0.3 c -0.2 0.4 -0.4 0.8 -0.6 1.2 c -0.2 0.4 -0.4 0.9 -0.6 1.3 c 0 0.1 -0.1 0 -0.1 0.1 c 0 0 -0.1 0.2 -0.1 0.2 c 0 0.1 -0.2 0.1 -0.2 0.2 c -0.1 0.2 -0.2 0.4 -0.3 0.5 c -0.3 0.4 -0.5 0.8 -0.7 1.2 c -0.1 0.2 -0.2 0.4 -0.3 0.6 c 0 0.1 -0.2 0.1 -0.2 0.2 c 0 0.1 0 0.2 -0.1 0.3 c -0.1 0.1 -0.3 0.1 -0.3 0.2 c -0.1 0.1 0 0.2 -0.1 0.3 c 0 0 -0.2 0.1 -0.2 0.1 c -0.1 0.1 -0.1 0.3 -0.2 0.4 c -0.1 0.1 -0.3 0.1 -0.3 0.2 c -0.1 0.1 0 0.2 -0.1 0.3 c -0.1 0.1 -0.3 0.1 -0.3 0.2 c -0.1 0.1 0 0.2 -0.1 0.3 c -0.3 0.3 -0.6 0.6 -1 1 c -0.2 0.2 -0.3 0.4 -0.4 0.5 c -0.1 0.1 -0.2 0 -0.3 0.1 c -0.1 0.1 -0.1 0.2 -0.2 0.2 c -0.5 0.4 -0.9 0.9 -1.5 1.4 c -0.2 0.2 -0.4 0.4 -0.6 0.5 c -0.1 0 -0.1 0.1 -0.1 0.1 c -0.1 0 -0.2 0 -0.3 0.1 c 0 0 -0.1 0.2 -0.1 0.2 c -0.1 0.1 -0.2 0.1 -0.4 0.2 c -0.1 0.1 -0.2 0.1 -0.3 0.2 c -0.2 0.1 -0.3 0.2 -0.5 0.3 c -0.2 0.1 -0.3 0.2 -0.7 0.3 c -0.2 0.1 -0.4 0 -0.5 0.1 c 0 0 0 0.1 -0.1 0.1 c -0.3 0 -0.5 0.2 -0.7 0.3 c -1.8 0.7 -4 1.2 -6.3 1.4 c -0.4 0 -0.8 0.1 -1.2 0.1 c -0.3 0 -0.5 -0.2 -0.9 -0.1 c -0.1 0 -0.1 0.1 -0.2 0.1 c -0.2 0 -1.7 -0.2 -1.8 0 c -0.1 0.1 -0.2 0 -0.5 0 c -1.6 -0.1 -3.1 -0.2 -4.6 -0.5 c -0.3 -0.1 -0.7 -0.1 -1.1 -0.2 c -0.3 -0.1 -0.7 -0.1 -1.1 -0.2 c 0 0 0 -0.1 -0.1 -0.1 c -0.2 0 -0.2 -0.1 -0.3 -0.1 c -0.2 -0.1 -0.4 -0.1 -0.5 -0.1 c -0.2 -0.1 -0.4 -0.1 -0.5 -0.1 c 0 0 0 -0.1 -0.1 -0.1 c 0 0 -0.3 0 -0.3 0 c 0 0 0 -0.1 0 -0.1 c -0.4 -0.1 -0.7 -0.1 -1.1 -0.2 c 0 0 0 -0.1 -0.1 -0.1 c -0.2 0 -0.5 -0.2 -0.7 -0.3 c -0.4 -0.2 -0.7 -0.3 -1.1 -0.5 c -0.1 0 0 -0.1 -0.1 -0.1 c -0.2 0 -0.2 -0.2 -0.4 -0.2 c -0.1 0 -0.1 -0.2 -0.2 -0.2 c 0 0 -0.2 0 -0.2 0 c 0 0 0 -0.1 0 -0.1 c 0 0 -0.2 0 -0.2 0 c 0 0 0 -0.1 0 -0.1 c 0 0 -0.2 0 -0.2 0 c 0 0 0 -0.1 0 -0.1 c 0 0 -0.2 0 -0.2 0 c 0 0 0 -0.1 0 -0.1 c 0 0 -0.2 0 -0.2 0 c 0 0 0 -0.1 0 -0.1 c 0 0 -0.2 0 -0.2 0 c -0.1 -0.1 -0.1 -0.1 -0.2 -0.2 c -0.1 -0.1 -0.3 -0.1 -0.4 -0.2 c -0.1 -0.1 -0.2 -0.2 -0.3 -0.3 c -0.1 -0.1 -0.3 -0.1 -0.4 -0.2 c -0.1 -0.1 -0.2 -0.2 -0.3 -0.3 c 0 0 -0.2 0 -0.2 0 c -0.1 -0.2 -0.2 -0.2 -0.4 -0.3 c -0.1 0 0 -0.1 -0.1 -0.1 c 0 0 -0.1 0 -0.1 0 c -0.1 -0.1 -0.2 -0.2 -0.3 -0.3 c -0.1 -0.1 -0.2 -0.2 -0.3 -0.2 c -0.1 0 -0.6 -0.5 -0.7 -0.6 c -0.2 -0.2 -0.5 -0.3 -0.6 -0.5 c -0.1 -0.1 -0.2 -0.2 -0.2 -0.2 c 0 0 0 -0.2 0 -0.2 c -0.1 -0.1 -0.3 -0.1 -0.3 -0.3 c 0 -0.2 -0.3 -0.2 -0.3 -0.4 c 0 -0.1 -0.2 -0.3 -0.3 -0.4 c -0.1 -0.1 0 -0.2 -0.1 -0.3 c 0 -0.1 -0.2 -0.1 -0.2 -0.1 c 0 0 0 -0.2 0 -0.2 c -0.5 -0.4 -0.7 -1.4 -1.1 -2.1 c -0.1 -0.1 -0.2 -0.1 -0.2 -0.2 c 0 0 0 -0.2 0 -0.2 c 0 0 -0.1 0 -0.1 0 c 0 0 0 -0.2 0 -0.2 c 0 0 -0.1 0 -0.1 0 c 0 0 0 -0.2 0 -0.2 c -0.3 -0.3 -0.6 -0.7 -0.9 -1.3 c 0 0 0 -0.2 0 -0.2 c 0 0 -0.1 0 -0.1 0 c 0 0 0 -0.2 0 -0.2 c -0.1 -0.1 -0.2 -0.6 -0.3 -0.9 c 0 0 0 -0.2 0 -0.2 c -0.2 -0.2 -0.3 -1.3 -0.3 -1.8 c 0 -0.3 -0.1 -0.6 -0.1 -1 c -0.1 -0.9 0 -1.9 0.1 -2.9 c 0.1 -1.1 0.1 -2.1 0.4 -3 c 0 0 0 -0.2 0 -0.2 c 0.2 -0.1 0.3 -0.9 0.4 -1.3 c 0.1 -0.4 0.3 -0.8 0.4 -1.2 c 0 0 0.1 0 0.1 -0.1 c 0 -0.2 0.1 -0.2 0.1 -0.4 C 33 40.7 33 40.5 33.2 40.4 z" stroke-linecap="round" />
</g>
</svg>